<svg xmlns="http://www.w3.org/2000/svg" width="238" height="73" fill="none"><path fill="#000" d="M135.127 0v71.252h-9v-5.396c-.355.063-.579.472-.853.697-11.406 9.377-27.95 7.356-36.63-4.561-7.758-10.653-6.28-25.726 3.482-34.561 9.559-8.65 24.799-8.982 34.001.351V4.947l9-4.947Zm-13.635 34.412c-8.849-8.83-24.481-4.73-27.891 7.284-4.065 14.325 9.964 27.16 23.693 20.479 10.444-5.082 12.237-19.742 4.197-27.763h.001Zm51.468 25.882c3.393-3.155 3.433-7.315 3.569-11.673l.015-23.57 9.28-5.164v30.528c-.486 8.054-3.312 16.096-10.978 19.809-6.874 3.327-17.886 3.013-24.234-1.407-6.636-4.622-8.428-12.737-8.692-20.394l.005-28.535 9.383 5.163.012 24.072c.226 2.86.086 5.916 1.467 8.527 3.714 7.02 14.64 7.789 20.172 2.645h.001Zm17.163 10.958L208.69 45.52l-18.415-25.735 12.605 2.493 11.245 15.696.442-.405 11.06-15.33 12.295-2.152-18.11 25.432.062.248 18.044 24.54.005.945h-10.349l-13.053-17.836-.396-.352-13.052 18.188h-10.95ZM22.86 32.808l3.846-3.84-9.145-9.134 5.3 12.974Zm14.621-12.504-14.01 13.993 14.01 34.277v-48.27ZM39 20.38v48.196L52.988 34.35 39 20.379Zm21.793-1.212a.867.867 0 0 1-.05.215l-21.57 52.768L76.36 35.02v-.064l.118-.118-15.688-15.67h.004Zm-45.058.215a.858.858 0 0 1-.05-.215L0 34.837 37.258 72.05 15.734 19.383Zm43.228.353-9.25 9.239 3.887 3.881 5.363-13.12Z"/></svg>
