<svg viewBox="0 0 156 50" fill="#ffffff" xmlns="http://www.w3.org/2000/svg" class="logo-desktop">
  <path fill-rule="evenodd" clip-rule="evenodd" d="M48.0179 24.7925L48.017 24.792C44.5855 22.8375 37.9008 19.0301 37.8743 18.8807C37.8573 18.7903 37.8399 18.6961 37.822 18.5988L37.8217 18.5969C37.5516 17.1296 37.1495 14.9455 35.5814 13.7806C34.4783 12.9683 28.5153 10.2103 25.7776 8.94412C24.9417 8.55753 24.4065 8.30999 24.402 8.29932C22.6123 5.65169 21.0263 2.87745 19.6571 -0.000457764C18.3569 0.957335 17.2993 2.19519 16.5664 3.61724C15.8335 5.03928 15.4448 6.60735 15.4306 8.2C10.6557 8.86975 6.17411 10.8556 2.50959 13.9256C12.0131 11.7943 14.7504 13.7591 14.7504 13.7591C11.6389 14.3016 8.6408 15.3447 5.87766 16.8461C1.82665 19.0257 0 21.6429 0 21.6429C0 21.6429 9.1991 19.0686 16.2589 21.5731C12.9667 22.0276 9.90646 23.4918 7.51782 25.7552C22.1503 27.5295 29.3664 39.9577 32.4026 49.9995C33.5189 32.1384 24.4322 25.3552 24.4322 25.3552C27.0707 25.5404 30.3894 27.5483 32.5123 30.5359C38.9048 29.8307 42.4992 31.7148 42.5583 31.7617C42.5678 31.7548 42.714 31.7073 42.9615 31.6269C43.9575 31.3035 46.5937 30.4476 48.5764 29.5534C48.3598 29.234 47.4492 28.1254 46.9308 27.5053C47.0021 27.5107 48.9933 27.3953 49.9999 25.927C50.0098 25.927 49.2104 25.4717 48.0179 24.7925ZM29.8505 18.0057C30.3227 17.8815 33.1591 17.1357 34.0071 17.45C34.8299 17.7533 34.8463 20.0457 34.8463 20.0457C34.8463 20.0457 32.9676 20.3034 29.7888 18.0218L29.805 18.0176L29.849 18.0061L29.8505 18.0057Z" fill="#ffffff"></path>
  <path d="M146.013 20.1518H147.836V19.5046C147.836 18.1161 148.233 16.9855 148.993 16.201C149.755 15.4154 150.86 14.9995 152.229 14.9995C153.473 14.9995 154.488 15.3473 155.361 15.951L155.5 16.0474L154.26 18.1176L154.095 17.9899C153.6 17.6087 153.07 17.4013 152.411 17.4013C151.86 17.4013 151.424 17.5725 151.125 17.8917C150.824 18.2127 150.639 18.7066 150.639 19.3926V20.1518H154.643V22.5759H150.639V32.2083H147.836V22.5759H145.37L146.013 20.1518Z" fill="#ffffff"></path>
  <path d="M143.6 15.2907H140.797V32.2083H143.6V15.2907Z" fill="#ffffff"></path>
  <path d="M120.012 32.4547H120.738L125.777 20.1518H122.735L120.301 26.9562L117.323 20.0846H116.577L113.664 26.9563L111.165 20.1518H108.102L113.095 32.4547H113.844L116.928 25.1097L120.012 32.4547Z" fill="#ffffff"></path>
  <path fill-rule="evenodd" clip-rule="evenodd" d="M106.252 22.7771L106.449 22.7902V19.9725H106.265C104.824 19.9725 103.123 20.3549 101.972 22.0495L101.917 20.1518H99.2102V32.2083H102.013V26.3816C102.013 24.8428 102.593 23.9235 103.39 23.3963C104.2 22.8615 105.262 22.7114 106.252 22.7771Z" fill="#ffffff"></path>
  <path fill-rule="evenodd" clip-rule="evenodd" d="M88.6895 29.1928C88.1289 28.6923 87.7566 27.9533 87.6213 26.9665H96.6524V26.7849C96.6524 26.6784 96.6578 26.5766 96.6635 26.4696L96.6636 26.4676C96.6692 26.3624 96.6751 26.252 96.6751 26.1352C96.6751 24.162 96.0839 22.5852 95.0529 21.5002C94.021 20.4141 92.5649 19.8382 90.8718 19.8382C87.5173 19.8382 84.7272 22.2935 84.7272 26.1576C84.7272 28.1228 85.3545 29.712 86.4613 30.8106C87.5679 31.909 89.1366 32.4995 90.9855 32.4995C93.0987 32.4995 94.7435 31.8792 96.0805 30.4472L96.1895 30.3304L94.6395 28.4883L94.4963 28.6264C93.4609 29.6242 92.4378 30.0082 91.1675 30.0082C90.1206 30.0082 89.2874 29.7266 88.6895 29.1928ZM90.849 22.2175C91.7145 22.2175 92.3931 22.5037 92.8808 22.997C93.3337 23.455 93.6343 24.104 93.7557 24.9008H87.6833C88.0497 23.2596 89.2675 22.2175 90.849 22.2175Z" fill="#ffffff"></path>
  <path fill-rule="evenodd" clip-rule="evenodd" d="M77.3595 32.4547H78.0663L84.2547 20.1518H81.0846L77.7688 27.5686L74.409 20.1518H71.1946L77.3595 32.4547Z" fill="#ffffff"></path>
  <path fill-rule="evenodd" clip-rule="evenodd" d="M125.948 26.18C125.948 30.1437 128.954 32.4995 132.321 32.4995C135.734 32.4995 138.693 30.1201 138.693 26.18C138.693 22.1724 135.711 19.8382 132.343 19.8382C128.931 19.8382 125.948 22.1944 125.948 26.18ZM135.821 26.1576C135.821 28.5943 134.147 30.0082 132.321 30.0082C130.45 30.0082 128.82 28.5951 128.82 26.18C128.82 23.7441 130.494 22.3295 132.343 22.3295C134.213 22.3295 135.821 23.7411 135.821 26.1576Z" fill="#ffffff"></path>
  <path fill-rule="evenodd" clip-rule="evenodd" d="M58 26.18C58 30.1437 61.0053 32.4995 64.3721 32.4995C67.7857 32.4995 70.7441 30.1201 70.7441 26.18C70.7441 22.1724 67.7624 19.8382 64.3948 19.8382C60.9821 19.8382 58 22.1944 58 26.18ZM67.8729 26.1576C67.8729 28.5943 66.1981 30.0082 64.3721 30.0082C62.5012 30.0082 60.8712 28.5951 60.8712 26.18C60.8712 23.7441 62.5453 22.3295 64.3948 22.3295C66.2642 22.3295 67.8729 23.7411 67.8729 26.1576Z" fill="#ffffff"></path>
  </svg>
