<svg width="139" height="22" viewBox="0 0 139 22" fill="none" xmlns="http://www.w3.org/2000/svg">
<path d="M17.9574 19.4336L30.6503 4.82237L25.4423 0.299988L8.22705 20.1192C9.61067 21.3132 11.4105 21.9113 13.2336 21.7829C15.0567 21.6544 16.7549 20.8099 17.9574 19.4336Z" fill="white"/>
<path d="M6.37159 18.5401L11.7116 12.3949C10.0563 10.9045 7.88688 10.1152 5.66084 10.1935C4.57778 10.2444 3.51666 10.5167 2.54301 10.9938C1.56936 11.4709 0.70387 12.1426 0 12.9673L6.37159 18.5401Z" fill="white"/>
<path d="M50.1362 6.90479V20.2895H53.6585V6.90479H50.1362Z" fill="white"/>
<path d="M60.0867 10.5881C60.0867 9.8396 60.9232 9.25465 62.1938 9.25465C63.4278 9.25674 64.6305 9.64372 65.6343 10.3617L67.3891 8.26715C65.8804 7.1496 64.0459 6.55946 62.1686 6.58776C58.6463 6.58776 56.6839 8.55648 56.6839 10.8019C56.6839 16.0665 64.6342 14.2613 64.6342 16.4628C64.6342 17.293 63.9172 17.9032 62.3887 17.9032C61.0023 17.8421 59.6576 17.4098 58.4953 16.6515L56.6084 18.8529C58.2384 20.0376 60.2105 20.6581 62.2252 20.6204C65.9362 20.6204 68.0181 18.7334 68.0181 16.3244C68.0181 10.9215 60.0867 12.582 60.0867 10.5881Z" fill="white"/>
<path d="M86.2461 6.90479V20.2895H89.7684V6.90479H86.2461Z" fill="white"/>
<path d="M122.331 13.9434C122.331 9.54048 119.614 6.57169 115.626 6.57169C114.705 6.55683 113.791 6.72879 112.939 7.07718C112.086 7.42558 111.313 7.94317 110.667 8.59868C110.02 9.25419 109.513 10.034 109.176 10.891C108.839 11.748 108.68 12.6644 108.707 13.5848C108.707 17.8808 111.783 20.6231 115.859 20.6231C117.851 20.6856 119.801 20.0342 121.356 18.7865L119.192 16.975C118.3 17.5059 117.286 17.7983 116.249 17.8242C113.978 17.8242 112.613 16.409 112.393 14.7233H122.343L122.331 13.9434ZM112.324 12.3395C112.389 11.5159 112.769 10.749 113.383 10.1967C113.997 9.64436 114.8 9.34871 115.626 9.37066C116.038 9.34433 116.452 9.40071 116.842 9.53648C117.232 9.67224 117.592 9.88466 117.899 10.1612C118.206 10.4378 118.455 10.773 118.63 11.1471C118.806 11.5211 118.905 11.9265 118.922 12.3395H112.324Z" fill="white"/>
<path d="M106.191 6.90479H102.669V20.2895H106.191V6.90479Z" fill="white"/>
<path d="M100.172 1.48175V4.55747C100.172 4.55747 98.159 4.4191 97.5551 4.81536C97.3445 5.0001 97.1826 5.23392 97.0839 5.49613C96.9852 5.75833 96.9526 6.04083 96.989 6.31862V6.90358H100.178V9.98559H96.989V20.2883H93.4353V6.31862C93.4353 3.51336 95.1965 1.60755 97.6809 1.48175H100.172Z" fill="white"/>
<path d="M79.799 20.291L75.9119 15.0894L74.264 16.8254V20.291H70.7417V3.67334H74.264V12.7999L79.2959 6.90002H83.6547L78.4216 12.9131L83.9315 20.291H79.799Z" fill="white"/>
<path d="M50.1362 6.90479V20.2895H53.6585V6.90479H50.1362Z" fill="white"/>
<path d="M60.0867 10.5881C60.0867 9.8396 60.9232 9.25465 62.1938 9.25465C63.4278 9.25674 64.6305 9.64372 65.6343 10.3617L67.3891 8.26715C65.8804 7.1496 64.0459 6.55946 62.1686 6.58776C58.6463 6.58776 56.6839 8.55648 56.6839 10.8019C56.6839 16.0665 64.6342 14.2613 64.6342 16.4628C64.6342 17.293 63.9172 17.9032 62.3887 17.9032C61.0023 17.8421 59.6576 17.4098 58.4953 16.6515L56.6084 18.8529C58.2384 20.0376 60.2105 20.6581 62.2252 20.6204C65.9362 20.6204 68.0181 18.7334 68.0181 16.3244C68.0181 10.9215 60.0867 12.582 60.0867 10.5881Z" fill="white"/>
<path d="M86.2461 6.90479V20.2895H89.7684V6.90479H86.2461Z" fill="white"/>
<path d="M122.331 13.9434C122.331 9.54048 119.614 6.57169 115.626 6.57169C114.705 6.55683 113.791 6.72879 112.939 7.07718C112.086 7.42558 111.313 7.94317 110.667 8.59868C110.02 9.25419 109.513 10.034 109.176 10.891C108.839 11.748 108.68 12.6644 108.707 13.5848C108.707 17.8808 111.783 20.6231 115.859 20.6231C117.851 20.6856 119.801 20.0342 121.356 18.7865L119.192 16.975C118.3 17.5059 117.286 17.7983 116.249 17.8242C113.978 17.8242 112.613 16.409 112.393 14.7233H122.343L122.331 13.9434ZM112.324 12.3395C112.389 11.5159 112.769 10.749 113.383 10.1967C113.997 9.64436 114.8 9.34871 115.626 9.37066C116.038 9.34433 116.452 9.40071 116.842 9.53648C117.232 9.67224 117.592 9.88466 117.899 10.1612C118.206 10.4378 118.455 10.773 118.63 11.1471C118.806 11.5211 118.905 11.9265 118.922 12.3395H112.324Z" fill="white"/>
<path d="M106.191 6.90479H102.669V20.2895H106.191V6.90479Z" fill="white"/>
<path d="M100.172 1.48175V4.55747C100.172 4.55747 98.159 4.4191 97.5551 4.81536C97.3445 5.0001 97.1826 5.23392 97.0839 5.49613C96.9852 5.75833 96.9526 6.04083 96.989 6.31862V6.90358H100.178V9.98559H96.989V20.2883H93.4353V6.31862C93.4353 3.51336 95.1965 1.60755 97.6809 1.48175H100.172Z" fill="white"/>
<path d="M79.799 20.291L75.9119 15.0894L74.264 16.8254V20.291H70.7417V3.67334H74.264V12.7999L79.2959 6.90002H83.6547L78.4216 12.9131L83.9315 20.291H79.799Z" fill="white"/>
<path d="M138.225 13.6025V1.47577C137.291 1.47577 136.395 1.84687 135.734 2.50743C135.074 3.16799 134.703 4.0639 134.703 4.99807L134.627 7.514C133.584 6.91287 132.403 6.59418 131.199 6.58939C129.822 6.58918 128.476 6.99389 127.327 7.75314C126.179 8.5124 125.279 9.59267 124.74 10.8595C124.2 12.1263 124.045 13.5238 124.294 14.878C124.543 16.2321 125.185 17.4831 126.14 18.4754C127.094 19.4676 128.319 20.1572 129.663 20.4583C131.006 20.7595 132.409 20.6588 133.696 20.169C134.982 19.6791 136.097 18.8216 136.9 17.7033C137.703 16.585 138.159 15.2551 138.212 13.8793V13.6025H138.225ZM131.199 17.4205C130.444 17.4205 129.706 17.1965 129.078 16.777C128.45 16.3575 127.961 15.7612 127.672 15.0636C127.383 14.366 127.307 13.5983 127.455 12.8577C127.602 12.1171 127.966 11.4368 128.5 10.9029C129.034 10.3689 129.714 10.0053 130.454 9.85798C131.195 9.71067 131.963 9.78627 132.66 10.0752C133.358 10.3642 133.954 10.8536 134.374 11.4814C134.793 12.1093 135.017 12.8474 135.017 13.6025C135.018 14.1042 134.92 14.601 134.728 15.0646C134.537 15.5282 134.255 15.9494 133.901 16.3041C133.546 16.6588 133.125 16.94 132.661 17.1315C132.198 17.3231 131.701 17.4213 131.199 17.4205Z" fill="white"/>
<path d="M38.5818 10.421V20.3023H42.1041V6.89874C41.1699 6.89874 40.274 7.26984 39.6134 7.9304C38.9529 8.59096 38.5818 9.48687 38.5818 10.421Z" fill="white"/>
<path d="M43.3557 6.89874V11.0563C44.4867 11.0686 45.5791 10.6452 46.4063 9.87383C46.8085 9.49051 47.1277 9.02865 47.3441 8.51688C47.5605 8.00511 47.6695 7.45435 47.6642 6.89874H43.3557Z" fill="white"/>
</svg>
