<svg width="200" height="32" viewBox="0 0 200 32" fill="none" xmlns="http://www.w3.org/2000/svg"><path d="M35.5789 0.233292L22.8055 30.5045H12.7734L0 0.233292H10.9653L18.1977 17.9061L25.6051 0.233292H35.5789Z" fill="black"></path><path d="M123.476 30.3879L136.25 1.28316H146.282L159.114 30.3879H148.148L140.916 13.415L133.508 30.3879H123.476Z" fill="#000000"></path><path d="M41.7033 27.4132C39.1369 24.9052 37.7954 21.4056 37.7954 16.8562V0.233292H48.0025V16.5646C48.0025 18.781 48.4107 20.4141 49.169 21.4056C49.9856 22.3972 51.0937 22.9221 52.6102 22.9221C54.1267 22.9221 55.2349 22.3972 56.0515 21.4056C56.868 20.4141 57.218 18.781 57.218 16.5646V0.233292H67.2501V16.8562C67.2501 21.4056 65.9669 24.9052 63.3422 27.4132C60.7759 29.9212 57.1597 31.1461 52.4936 31.1461C47.8858 31.1461 44.2696 29.9212 41.7033 27.4132Z" fill="black"></path><path d="M70.1079 0.233292H80.315V22.5722H93.9633V30.5045H70.1079V0.233292Z" fill="black"></path><path d="M102.42 28.5214C99.9707 27.2383 98.0459 25.4302 96.6461 23.0971C95.2463 20.7641 94.5464 18.1394 94.5464 15.2231C94.5464 12.3068 95.2463 9.68212 96.6461 7.34908C98.0459 5.01604 99.9707 3.20793 102.42 1.92476C104.87 0.641586 107.67 0 110.761 0C113.561 0 116.127 0.524934 118.343 1.51648C120.56 2.50802 122.368 3.96617 123.826 5.8326L117.643 11.3736C115.835 9.09886 113.736 7.99067 111.286 7.99067C109.245 7.99067 107.611 8.63225 106.328 9.97375C105.045 11.3153 104.462 13.065 104.462 15.2814C104.462 17.4978 105.103 19.2476 106.328 20.5891C107.553 21.9306 109.245 22.5722 111.286 22.5722C113.736 22.5722 115.835 21.464 117.643 19.1893L123.826 24.7302C122.368 26.5967 120.56 28.0548 118.343 29.0464C116.127 30.0379 113.619 30.5628 110.761 30.5628C107.67 30.5045 104.928 29.8629 102.42 28.5214Z" fill="#000000"></path><path d="M189.268 1.28316V30.3879H181.219L170.137 17.1478V30.3879H160.572V1.28316H168.621L179.702 14.5232V1.28316H189.268Z" fill="#000000"></path><path d="M200 23.3304H192.942V30.3878H200V23.3304Z" fill="#000000"></path><path d="M192.884 1.28316H194.984V1.80809H194.226V3.96616H193.584V1.80809H192.884V1.28316Z" fill="black"></path><path d="M195.45 1.28317H196.208L196.967 3.14961L197.725 1.28317H198.483V3.96617H197.842V2.33304L197.258 3.96617H196.733L196.15 2.33304V3.96617H195.509V1.28317H195.45Z" fill="black"></path></svg>
